<?xml version="1.0" standalone="no"?>
<!DOCTYPE svg PUBLIC "-//W3C//DTD SVG 20010904//EN"
 "http://www.w3.org/TR/2001/REC-SVG-20010904/DTD/svg10.dtd">
<svg version="1.0" xmlns="http://www.w3.org/2000/svg"
 width="200.000000pt" height="200.000000pt" viewBox="0 0 200.000000 200.000000"
 preserveAspectRatio="xMidYMid meet">

<g transform="translate(0.000000,200.000000) scale(0.100000,-0.100000)"
fill="#000000" stroke="none">
<path d="M1155 1592 c-21 -14 -68 -87 -158 -244 l-128 -225 61 -108 c37 -66
58 -115 55 -126 -7 -20 -29 -31 -49 -23 -8 3 -65 95 -126 205 -68 121 -122
207 -138 217 -32 21 -92 20 -123 -2 -34 -23 -449 -744 -449 -779 0 -43 28 -87
65 -103 53 -22 1633 -21 1675 1 34 17 60 62 60 101 0 30 -567 1022 -610 1067
-36 38 -93 46 -135 19z"/>
</g>
</svg>
